<svg width="273" height="69" viewBox="0 0 273 69" fill="none" xmlns="http://www.w3.org/2000/svg">
<mask id="path-1-outside-1" maskUnits="userSpaceOnUse" x="0" y="0" width="273" height="69" fill="black">
<rect fill="white" width="273" height="69"/>
<path d="M113.67 8.248C113.67 10.136 113.142 11.88 112.086 13.48C111.03 15.08 109.286 16.296 106.854 17.128L112.422 31.48H101.718L97.4944 18.184H96.9664L94.1344 31.48H83.7664L90.2464 1H102.87C104.342 1 105.734 1.096 107.046 1.288C108.358 1.448 109.494 1.8 110.454 2.344C111.446 2.856 112.23 3.592 112.806 4.552C113.382 5.48 113.67 6.712 113.67 8.248ZM99.8464 15.112C100.678 15.112 101.382 14.84 101.958 14.296C102.566 13.72 103.046 13.032 103.398 12.232C103.782 11.432 104.054 10.584 104.214 9.688C104.374 8.76 104.454 7.96 104.454 7.288C104.454 6.456 104.31 5.752 104.022 5.176C103.734 4.568 103.11 4.264 102.15 4.264H99.9904L97.5904 15.112H99.8464Z"/>
<path d="M124.509 31.48H114.141L120.621 1H131.037L124.509 31.48Z"/>
<path d="M129.798 31.48L136.278 1H149.19C151.174 1 152.902 1.208 154.374 1.624C155.878 2.008 157.11 2.664 158.07 3.592C159.062 4.52 159.798 5.736 160.278 7.24C160.79 8.744 161.046 10.584 161.046 12.76C161.046 15.096 160.742 17.384 160.134 19.624C159.558 21.864 158.582 23.864 157.206 25.624C155.83 27.384 154.022 28.808 151.782 29.896C149.574 30.952 146.838 31.48 143.574 31.48H129.798ZM142.95 28.12C144.006 28.12 144.934 27.688 145.734 26.824C146.566 25.928 147.27 24.808 147.846 23.464C148.454 22.088 148.95 20.584 149.334 18.952C149.75 17.288 150.07 15.688 150.294 14.152C150.55 12.616 150.726 11.24 150.822 10.024C150.95 8.808 151.014 7.944 151.014 7.432C151.014 6.44 150.806 5.672 150.39 5.128C150.006 4.552 149.318 4.264 148.326 4.264H146.022L140.886 28.12H142.95Z"/>
<path d="M168.059 1H188.267L187.499 4.648H177.707L175.691 13.912H183.899L183.131 17.512H174.923L172.715 27.784H182.507L181.787 31.48H161.579L168.059 1Z"/>
<path d="M26.44 64.888C25.64 65.272 24.808 65.656 23.944 66.04C23.112 66.392 22.216 66.712 21.256 67C20.296 67.256 19.24 67.464 18.088 67.624C16.968 67.784 15.736 67.864 14.392 67.864C10.104 67.864 6.792 66.904 4.456 64.984C2.152 63.064 1 59.864 1 55.384C1 52.792 1.4 50.36 2.2 48.088C3 45.784 4.184 43.784 5.752 42.088C7.32 40.36 9.256 39 11.56 38.008C13.864 37.016 16.504 36.52 19.48 36.52C20.888 36.52 22.168 36.616 23.32 36.808C24.504 37 25.56 37.256 26.488 37.576C27.448 37.864 28.296 38.184 29.032 38.536C29.8 38.888 30.488 39.224 31.096 39.544L29.368 48.472H20.728C20.76 48.152 20.792 47.736 20.824 47.224C20.888 46.712 20.936 46.2 20.968 45.688C21 45.144 21.032 44.616 21.064 44.104C21.096 43.592 21.112 43.16 21.112 42.808C21.112 42.552 21.096 42.264 21.064 41.944C21.032 41.592 20.952 41.256 20.824 40.936C20.696 40.616 20.488 40.36 20.2 40.168C19.944 39.944 19.592 39.832 19.144 39.832C18.312 39.832 17.544 40.184 16.84 40.888C16.168 41.56 15.56 42.472 15.016 43.624C14.472 44.744 13.992 46.024 13.576 47.464C13.16 48.904 12.808 50.376 12.52 51.88C12.264 53.352 12.056 54.808 11.896 56.248C11.768 57.688 11.704 58.952 11.704 60.04C11.704 60.36 11.72 60.76 11.752 61.24C11.784 61.72 11.88 62.184 12.04 62.632C12.2 63.08 12.44 63.464 12.76 63.784C13.112 64.104 13.576 64.264 14.152 64.264C15.144 64.264 16.104 63.656 17.032 62.44C17.96 61.192 18.776 58.984 19.48 55.816H28.36L26.44 64.888Z"/>
<path d="M49.7523 36.52C52.5043 36.52 54.7283 36.872 56.4243 37.576C58.1523 38.28 59.5123 39.368 60.5043 40.84C61.1443 41.832 61.6402 42.952 61.9922 44.2C62.3442 45.448 62.5203 46.888 62.5203 48.52C62.5203 49.928 62.3923 51.336 62.1362 52.744C61.8802 54.152 61.5122 55.512 61.0322 56.824C60.5842 58.104 60.0243 59.32 59.3522 60.472C58.7122 61.592 57.9923 62.584 57.1923 63.448C55.6883 65.08 53.9443 66.232 51.9603 66.904C50.0083 67.544 47.5922 67.864 44.7122 67.864C41.9282 67.864 39.6882 67.576 37.9922 67C36.2962 66.424 34.9523 65.496 33.9603 64.216C33.2563 63.32 32.6963 62.184 32.2803 60.808C31.8963 59.432 31.7043 57.704 31.7043 55.624C31.7043 52.072 32.3282 48.904 33.5762 46.12C34.8562 43.304 36.6643 41.08 39.0003 39.448C40.4083 38.456 41.9762 37.72 43.7043 37.24C45.4323 36.76 47.4483 36.52 49.7523 36.52ZM44.3283 64.504C45.0643 64.504 45.7522 64.184 46.3923 63.544C47.0642 62.872 47.6723 61.992 48.2163 60.904C48.7923 59.784 49.3043 58.52 49.7523 57.112C50.2323 55.704 50.6323 54.248 50.9523 52.744C51.2723 51.24 51.5123 49.752 51.6723 48.28C51.8643 46.776 51.9603 45.416 51.9603 44.2C51.9603 42.536 51.7843 41.4 51.4323 40.792C51.1123 40.152 50.6322 39.832 49.9922 39.832C49.2562 39.832 48.5522 40.152 47.8802 40.792C47.2082 41.432 46.5683 42.296 45.9603 43.384C45.3843 44.44 44.8563 45.672 44.3763 47.08C43.9283 48.456 43.5283 49.88 43.1763 51.352C42.8562 52.824 42.6002 54.28 42.4082 55.72C42.2482 57.16 42.1683 58.488 42.1683 59.704C42.1683 61.528 42.3603 62.792 42.7443 63.496C43.1603 64.168 43.6883 64.504 44.3283 64.504Z"/>
<path d="M98.1156 67.48H87.4596L91.8756 46.744L80.4996 67.48H73.9716L71.8116 46.024L67.2036 67.48H62.8836L69.3636 37H81.6036L83.0916 54.184L92.3076 37H104.644L98.1156 67.48Z"/>
<path d="M118.792 54.328C119.752 54.328 120.552 53.928 121.192 53.128C121.864 52.328 122.408 51.352 122.824 50.2C123.272 49.048 123.592 47.848 123.784 46.6C123.976 45.352 124.072 44.264 124.072 43.336C124.072 42.472 123.928 41.752 123.64 41.176C123.352 40.568 122.728 40.264 121.768 40.264H119.608L116.584 54.328H118.792ZM115.912 57.4L113.752 67.48H103.384L109.864 37H120.952C122.776 37 124.44 37.096 125.944 37.288C127.448 37.48 128.744 37.864 129.832 38.44C130.92 39.016 131.768 39.848 132.376 40.936C132.984 41.992 133.288 43.416 133.288 45.208C133.288 46.872 133.016 48.456 132.472 49.96C131.96 51.432 131.112 52.728 129.928 53.848C128.776 54.936 127.272 55.8 125.416 56.44C123.56 57.08 121.304 57.4 118.648 57.4H115.912Z"/>
<path d="M157.538 67.48H146.306L145.634 59.848H136.754L133.346 67.48H128.69L142.85 37H154.226L157.538 67.48ZM138.338 56.344H145.298L144.194 43.288L138.338 56.344Z"/>
<path d="M185.405 67.48H174.173L168.845 45.448L164.141 67.48H159.821L166.301 37H177.773L182.813 59.32L187.565 37H191.981L185.405 67.48Z"/>
<path d="M201.08 67.48H190.712L197.192 37H207.608L201.08 67.48Z"/>
<path d="M226.096 36.52C228.848 36.52 231.072 36.872 232.768 37.576C234.496 38.28 235.856 39.368 236.848 40.84C237.488 41.832 237.984 42.952 238.336 44.2C238.688 45.448 238.864 46.888 238.864 48.52C238.864 49.928 238.736 51.336 238.48 52.744C238.224 54.152 237.856 55.512 237.376 56.824C236.928 58.104 236.368 59.32 235.696 60.472C235.056 61.592 234.336 62.584 233.536 63.448C232.032 65.08 230.288 66.232 228.304 66.904C226.352 67.544 223.936 67.864 221.056 67.864C218.272 67.864 216.032 67.576 214.336 67C212.64 66.424 211.296 65.496 210.304 64.216C209.6 63.32 209.04 62.184 208.624 60.808C208.24 59.432 208.048 57.704 208.048 55.624C208.048 52.072 208.672 48.904 209.92 46.12C211.2 43.304 213.008 41.08 215.344 39.448C216.752 38.456 218.32 37.72 220.048 37.24C221.776 36.76 223.792 36.52 226.096 36.52ZM220.672 64.504C221.408 64.504 222.096 64.184 222.736 63.544C223.408 62.872 224.016 61.992 224.56 60.904C225.136 59.784 225.648 58.52 226.096 57.112C226.576 55.704 226.976 54.248 227.296 52.744C227.616 51.24 227.856 49.752 228.016 48.28C228.208 46.776 228.304 45.416 228.304 44.2C228.304 42.536 228.128 41.4 227.776 40.792C227.456 40.152 226.976 39.832 226.336 39.832C225.6 39.832 224.896 40.152 224.224 40.792C223.552 41.432 222.912 42.296 222.304 43.384C221.728 44.44 221.2 45.672 220.72 47.08C220.272 48.456 219.872 49.88 219.52 51.352C219.2 52.824 218.944 54.28 218.752 55.72C218.592 57.16 218.512 58.488 218.512 59.704C218.512 61.528 218.704 62.792 219.088 63.496C219.504 64.168 220.032 64.504 220.672 64.504Z"/>
<path d="M264.811 67.48H253.579L248.251 45.448L243.547 67.48H239.227L245.707 37H257.179L262.219 59.32L266.971 37H271.387L264.811 67.48Z"/>
</mask>
<path d="M113.67 8.248C113.67 10.136 113.142 11.88 112.086 13.48C111.03 15.08 109.286 16.296 106.854 17.128L112.422 31.48H101.718L97.4944 18.184H96.9664L94.1344 31.48H83.7664L90.2464 1H102.87C104.342 1 105.734 1.096 107.046 1.288C108.358 1.448 109.494 1.8 110.454 2.344C111.446 2.856 112.23 3.592 112.806 4.552C113.382 5.48 113.67 6.712 113.67 8.248ZM99.8464 15.112C100.678 15.112 101.382 14.84 101.958 14.296C102.566 13.72 103.046 13.032 103.398 12.232C103.782 11.432 104.054 10.584 104.214 9.688C104.374 8.76 104.454 7.96 104.454 7.288C104.454 6.456 104.31 5.752 104.022 5.176C103.734 4.568 103.11 4.264 102.15 4.264H99.9904L97.5904 15.112H99.8464Z" fill="url(#paint0_linear)"/>
<path d="M124.509 31.48H114.141L120.621 1H131.037L124.509 31.48Z" fill="url(#paint1_linear)"/>
<path d="M129.798 31.48L136.278 1H149.19C151.174 1 152.902 1.208 154.374 1.624C155.878 2.008 157.11 2.664 158.07 3.592C159.062 4.52 159.798 5.736 160.278 7.24C160.79 8.744 161.046 10.584 161.046 12.76C161.046 15.096 160.742 17.384 160.134 19.624C159.558 21.864 158.582 23.864 157.206 25.624C155.83 27.384 154.022 28.808 151.782 29.896C149.574 30.952 146.838 31.48 143.574 31.48H129.798ZM142.95 28.12C144.006 28.12 144.934 27.688 145.734 26.824C146.566 25.928 147.27 24.808 147.846 23.464C148.454 22.088 148.95 20.584 149.334 18.952C149.75 17.288 150.07 15.688 150.294 14.152C150.55 12.616 150.726 11.24 150.822 10.024C150.95 8.808 151.014 7.944 151.014 7.432C151.014 6.44 150.806 5.672 150.39 5.128C150.006 4.552 149.318 4.264 148.326 4.264H146.022L140.886 28.12H142.95Z" fill="url(#paint2_linear)"/>
<path d="M168.059 1H188.267L187.499 4.648H177.707L175.691 13.912H183.899L183.131 17.512H174.923L172.715 27.784H182.507L181.787 31.48H161.579L168.059 1Z" fill="url(#paint3_linear)"/>
<path d="M26.44 64.888C25.64 65.272 24.808 65.656 23.944 66.04C23.112 66.392 22.216 66.712 21.256 67C20.296 67.256 19.24 67.464 18.088 67.624C16.968 67.784 15.736 67.864 14.392 67.864C10.104 67.864 6.792 66.904 4.456 64.984C2.152 63.064 1 59.864 1 55.384C1 52.792 1.4 50.36 2.2 48.088C3 45.784 4.184 43.784 5.752 42.088C7.32 40.36 9.256 39 11.56 38.008C13.864 37.016 16.504 36.52 19.48 36.52C20.888 36.52 22.168 36.616 23.32 36.808C24.504 37 25.56 37.256 26.488 37.576C27.448 37.864 28.296 38.184 29.032 38.536C29.8 38.888 30.488 39.224 31.096 39.544L29.368 48.472H20.728C20.76 48.152 20.792 47.736 20.824 47.224C20.888 46.712 20.936 46.2 20.968 45.688C21 45.144 21.032 44.616 21.064 44.104C21.096 43.592 21.112 43.16 21.112 42.808C21.112 42.552 21.096 42.264 21.064 41.944C21.032 41.592 20.952 41.256 20.824 40.936C20.696 40.616 20.488 40.36 20.2 40.168C19.944 39.944 19.592 39.832 19.144 39.832C18.312 39.832 17.544 40.184 16.84 40.888C16.168 41.56 15.56 42.472 15.016 43.624C14.472 44.744 13.992 46.024 13.576 47.464C13.16 48.904 12.808 50.376 12.52 51.88C12.264 53.352 12.056 54.808 11.896 56.248C11.768 57.688 11.704 58.952 11.704 60.04C11.704 60.36 11.72 60.76 11.752 61.24C11.784 61.72 11.88 62.184 12.04 62.632C12.2 63.08 12.44 63.464 12.76 63.784C13.112 64.104 13.576 64.264 14.152 64.264C15.144 64.264 16.104 63.656 17.032 62.44C17.96 61.192 18.776 58.984 19.48 55.816H28.36L26.44 64.888Z" fill="url(#paint4_linear)"/>
<path d="M49.7523 36.52C52.5043 36.52 54.7283 36.872 56.4243 37.576C58.1523 38.28 59.5123 39.368 60.5043 40.84C61.1443 41.832 61.6402 42.952 61.9922 44.2C62.3442 45.448 62.5203 46.888 62.5203 48.52C62.5203 49.928 62.3923 51.336 62.1362 52.744C61.8802 54.152 61.5122 55.512 61.0322 56.824C60.5842 58.104 60.0243 59.32 59.3522 60.472C58.7122 61.592 57.9923 62.584 57.1923 63.448C55.6883 65.08 53.9443 66.232 51.9603 66.904C50.0083 67.544 47.5922 67.864 44.7122 67.864C41.9282 67.864 39.6882 67.576 37.9922 67C36.2962 66.424 34.9523 65.496 33.9603 64.216C33.2563 63.32 32.6963 62.184 32.2803 60.808C31.8963 59.432 31.7043 57.704 31.7043 55.624C31.7043 52.072 32.3282 48.904 33.5762 46.12C34.8562 43.304 36.6643 41.08 39.0003 39.448C40.4083 38.456 41.9762 37.72 43.7043 37.24C45.4323 36.76 47.4483 36.52 49.7523 36.52ZM44.3283 64.504C45.0643 64.504 45.7522 64.184 46.3923 63.544C47.0642 62.872 47.6723 61.992 48.2163 60.904C48.7923 59.784 49.3043 58.52 49.7523 57.112C50.2323 55.704 50.6323 54.248 50.9523 52.744C51.2723 51.24 51.5123 49.752 51.6723 48.28C51.8643 46.776 51.9603 45.416 51.9603 44.2C51.9603 42.536 51.7843 41.4 51.4323 40.792C51.1123 40.152 50.6322 39.832 49.9922 39.832C49.2562 39.832 48.5522 40.152 47.8802 40.792C47.2082 41.432 46.5683 42.296 45.9603 43.384C45.3843 44.44 44.8563 45.672 44.3763 47.08C43.9283 48.456 43.5283 49.88 43.1763 51.352C42.8562 52.824 42.6002 54.28 42.4082 55.72C42.2482 57.16 42.1683 58.488 42.1683 59.704C42.1683 61.528 42.3603 62.792 42.7443 63.496C43.1603 64.168 43.6883 64.504 44.3283 64.504Z" fill="url(#paint5_linear)"/>
<path d="M98.1156 67.48H87.4596L91.8756 46.744L80.4996 67.48H73.9716L71.8116 46.024L67.2036 67.48H62.8836L69.3636 37H81.6036L83.0916 54.184L92.3076 37H104.644L98.1156 67.48Z" fill="url(#paint6_linear)"/>
<path d="M118.792 54.328C119.752 54.328 120.552 53.928 121.192 53.128C121.864 52.328 122.408 51.352 122.824 50.2C123.272 49.048 123.592 47.848 123.784 46.6C123.976 45.352 124.072 44.264 124.072 43.336C124.072 42.472 123.928 41.752 123.64 41.176C123.352 40.568 122.728 40.264 121.768 40.264H119.608L116.584 54.328H118.792ZM115.912 57.4L113.752 67.48H103.384L109.864 37H120.952C122.776 37 124.44 37.096 125.944 37.288C127.448 37.48 128.744 37.864 129.832 38.44C130.92 39.016 131.768 39.848 132.376 40.936C132.984 41.992 133.288 43.416 133.288 45.208C133.288 46.872 133.016 48.456 132.472 49.96C131.96 51.432 131.112 52.728 129.928 53.848C128.776 54.936 127.272 55.8 125.416 56.44C123.56 57.08 121.304 57.4 118.648 57.4H115.912Z" fill="url(#paint7_linear)"/>
<path d="M157.538 67.48H146.306L145.634 59.848H136.754L133.346 67.48H128.69L142.85 37H154.226L157.538 67.48ZM138.338 56.344H145.298L144.194 43.288L138.338 56.344Z" fill="url(#paint8_linear)"/>
<path d="M185.405 67.48H174.173L168.845 45.448L164.141 67.48H159.821L166.301 37H177.773L182.813 59.32L187.565 37H191.981L185.405 67.48Z" fill="url(#paint9_linear)"/>
<path d="M201.08 67.48H190.712L197.192 37H207.608L201.08 67.48Z" fill="url(#paint10_linear)"/>
<path d="M226.096 36.52C228.848 36.52 231.072 36.872 232.768 37.576C234.496 38.28 235.856 39.368 236.848 40.84C237.488 41.832 237.984 42.952 238.336 44.2C238.688 45.448 238.864 46.888 238.864 48.52C238.864 49.928 238.736 51.336 238.48 52.744C238.224 54.152 237.856 55.512 237.376 56.824C236.928 58.104 236.368 59.32 235.696 60.472C235.056 61.592 234.336 62.584 233.536 63.448C232.032 65.08 230.288 66.232 228.304 66.904C226.352 67.544 223.936 67.864 221.056 67.864C218.272 67.864 216.032 67.576 214.336 67C212.64 66.424 211.296 65.496 210.304 64.216C209.6 63.32 209.04 62.184 208.624 60.808C208.24 59.432 208.048 57.704 208.048 55.624C208.048 52.072 208.672 48.904 209.92 46.12C211.2 43.304 213.008 41.08 215.344 39.448C216.752 38.456 218.32 37.72 220.048 37.24C221.776 36.76 223.792 36.52 226.096 36.52ZM220.672 64.504C221.408 64.504 222.096 64.184 222.736 63.544C223.408 62.872 224.016 61.992 224.56 60.904C225.136 59.784 225.648 58.52 226.096 57.112C226.576 55.704 226.976 54.248 227.296 52.744C227.616 51.24 227.856 49.752 228.016 48.28C228.208 46.776 228.304 45.416 228.304 44.2C228.304 42.536 228.128 41.4 227.776 40.792C227.456 40.152 226.976 39.832 226.336 39.832C225.6 39.832 224.896 40.152 224.224 40.792C223.552 41.432 222.912 42.296 222.304 43.384C221.728 44.44 221.2 45.672 220.72 47.08C220.272 48.456 219.872 49.88 219.52 51.352C219.2 52.824 218.944 54.28 218.752 55.72C218.592 57.16 218.512 58.488 218.512 59.704C218.512 61.528 218.704 62.792 219.088 63.496C219.504 64.168 220.032 64.504 220.672 64.504Z" fill="url(#paint11_linear)"/>
<path d="M264.811 67.48H253.579L248.251 45.448L243.547 67.48H239.227L245.707 37H257.179L262.219 59.32L266.971 37H271.387L264.811 67.48Z" fill="url(#paint12_linear)"/>
<path d="M113.67 8.248C113.67 10.136 113.142 11.88 112.086 13.48C111.03 15.08 109.286 16.296 106.854 17.128L112.422 31.48H101.718L97.4944 18.184H96.9664L94.1344 31.48H83.7664L90.2464 1H102.87C104.342 1 105.734 1.096 107.046 1.288C108.358 1.448 109.494 1.8 110.454 2.344C111.446 2.856 112.23 3.592 112.806 4.552C113.382 5.48 113.67 6.712 113.67 8.248ZM99.8464 15.112C100.678 15.112 101.382 14.84 101.958 14.296C102.566 13.72 103.046 13.032 103.398 12.232C103.782 11.432 104.054 10.584 104.214 9.688C104.374 8.76 104.454 7.96 104.454 7.288C104.454 6.456 104.31 5.752 104.022 5.176C103.734 4.568 103.11 4.264 102.15 4.264H99.9904L97.5904 15.112H99.8464Z" stroke="url(#paint13_linear)" stroke-opacity="0.45" stroke-width="2" mask="url(#path-1-outside-1)"/>
<path d="M124.509 31.48H114.141L120.621 1H131.037L124.509 31.48Z" stroke="url(#paint14_linear)" stroke-opacity="0.45" stroke-width="2" mask="url(#path-1-outside-1)"/>
<path d="M129.798 31.48L136.278 1H149.19C151.174 1 152.902 1.208 154.374 1.624C155.878 2.008 157.11 2.664 158.07 3.592C159.062 4.52 159.798 5.736 160.278 7.24C160.79 8.744 161.046 10.584 161.046 12.76C161.046 15.096 160.742 17.384 160.134 19.624C159.558 21.864 158.582 23.864 157.206 25.624C155.83 27.384 154.022 28.808 151.782 29.896C149.574 30.952 146.838 31.48 143.574 31.48H129.798ZM142.95 28.12C144.006 28.12 144.934 27.688 145.734 26.824C146.566 25.928 147.27 24.808 147.846 23.464C148.454 22.088 148.95 20.584 149.334 18.952C149.75 17.288 150.07 15.688 150.294 14.152C150.55 12.616 150.726 11.24 150.822 10.024C150.95 8.808 151.014 7.944 151.014 7.432C151.014 6.44 150.806 5.672 150.39 5.128C150.006 4.552 149.318 4.264 148.326 4.264H146.022L140.886 28.12H142.95Z" stroke="url(#paint15_linear)" stroke-opacity="0.45" stroke-width="2" mask="url(#path-1-outside-1)"/>
<path d="M168.059 1H188.267L187.499 4.648H177.707L175.691 13.912H183.899L183.131 17.512H174.923L172.715 27.784H182.507L181.787 31.48H161.579L168.059 1Z" stroke="url(#paint16_linear)" stroke-opacity="0.45" stroke-width="2" mask="url(#path-1-outside-1)"/>
<path d="M26.44 64.888C25.64 65.272 24.808 65.656 23.944 66.04C23.112 66.392 22.216 66.712 21.256 67C20.296 67.256 19.24 67.464 18.088 67.624C16.968 67.784 15.736 67.864 14.392 67.864C10.104 67.864 6.792 66.904 4.456 64.984C2.152 63.064 1 59.864 1 55.384C1 52.792 1.4 50.36 2.2 48.088C3 45.784 4.184 43.784 5.752 42.088C7.32 40.36 9.256 39 11.56 38.008C13.864 37.016 16.504 36.52 19.48 36.52C20.888 36.52 22.168 36.616 23.32 36.808C24.504 37 25.56 37.256 26.488 37.576C27.448 37.864 28.296 38.184 29.032 38.536C29.8 38.888 30.488 39.224 31.096 39.544L29.368 48.472H20.728C20.76 48.152 20.792 47.736 20.824 47.224C20.888 46.712 20.936 46.2 20.968 45.688C21 45.144 21.032 44.616 21.064 44.104C21.096 43.592 21.112 43.16 21.112 42.808C21.112 42.552 21.096 42.264 21.064 41.944C21.032 41.592 20.952 41.256 20.824 40.936C20.696 40.616 20.488 40.36 20.2 40.168C19.944 39.944 19.592 39.832 19.144 39.832C18.312 39.832 17.544 40.184 16.84 40.888C16.168 41.56 15.56 42.472 15.016 43.624C14.472 44.744 13.992 46.024 13.576 47.464C13.16 48.904 12.808 50.376 12.52 51.88C12.264 53.352 12.056 54.808 11.896 56.248C11.768 57.688 11.704 58.952 11.704 60.04C11.704 60.36 11.72 60.76 11.752 61.24C11.784 61.72 11.88 62.184 12.04 62.632C12.2 63.08 12.44 63.464 12.76 63.784C13.112 64.104 13.576 64.264 14.152 64.264C15.144 64.264 16.104 63.656 17.032 62.44C17.96 61.192 18.776 58.984 19.48 55.816H28.36L26.44 64.888Z" stroke="url(#paint17_linear)" stroke-opacity="0.45" stroke-width="2" mask="url(#path-1-outside-1)"/>
<path d="M49.7523 36.52C52.5043 36.52 54.7283 36.872 56.4243 37.576C58.1523 38.28 59.5123 39.368 60.5043 40.84C61.1443 41.832 61.6402 42.952 61.9922 44.2C62.3442 45.448 62.5203 46.888 62.5203 48.52C62.5203 49.928 62.3923 51.336 62.1362 52.744C61.8802 54.152 61.5122 55.512 61.0322 56.824C60.5842 58.104 60.0243 59.32 59.3522 60.472C58.7122 61.592 57.9923 62.584 57.1923 63.448C55.6883 65.08 53.9443 66.232 51.9603 66.904C50.0083 67.544 47.5922 67.864 44.7122 67.864C41.9282 67.864 39.6882 67.576 37.9922 67C36.2962 66.424 34.9523 65.496 33.9603 64.216C33.2563 63.32 32.6963 62.184 32.2803 60.808C31.8963 59.432 31.7043 57.704 31.7043 55.624C31.7043 52.072 32.3282 48.904 33.5762 46.12C34.8562 43.304 36.6643 41.08 39.0003 39.448C40.4083 38.456 41.9762 37.72 43.7043 37.24C45.4323 36.76 47.4483 36.52 49.7523 36.52ZM44.3283 64.504C45.0643 64.504 45.7522 64.184 46.3923 63.544C47.0642 62.872 47.6723 61.992 48.2163 60.904C48.7923 59.784 49.3043 58.52 49.7523 57.112C50.2323 55.704 50.6323 54.248 50.9523 52.744C51.2723 51.24 51.5123 49.752 51.6723 48.28C51.8643 46.776 51.9603 45.416 51.9603 44.2C51.9603 42.536 51.7843 41.4 51.4323 40.792C51.1123 40.152 50.6322 39.832 49.9922 39.832C49.2562 39.832 48.5522 40.152 47.8802 40.792C47.2082 41.432 46.5683 42.296 45.9603 43.384C45.3843 44.44 44.8563 45.672 44.3763 47.08C43.9283 48.456 43.5283 49.88 43.1763 51.352C42.8562 52.824 42.6002 54.28 42.4082 55.72C42.2482 57.16 42.1683 58.488 42.1683 59.704C42.1683 61.528 42.3603 62.792 42.7443 63.496C43.1603 64.168 43.6883 64.504 44.3283 64.504Z" stroke="url(#paint18_linear)" stroke-opacity="0.45" stroke-width="2" mask="url(#path-1-outside-1)"/>
<path d="M98.1156 67.48H87.4596L91.8756 46.744L80.4996 67.48H73.9716L71.8116 46.024L67.2036 67.48H62.8836L69.3636 37H81.6036L83.0916 54.184L92.3076 37H104.644L98.1156 67.48Z" stroke="url(#paint19_linear)" stroke-opacity="0.45" stroke-width="2" mask="url(#path-1-outside-1)"/>
<path d="M118.792 54.328C119.752 54.328 120.552 53.928 121.192 53.128C121.864 52.328 122.408 51.352 122.824 50.2C123.272 49.048 123.592 47.848 123.784 46.6C123.976 45.352 124.072 44.264 124.072 43.336C124.072 42.472 123.928 41.752 123.64 41.176C123.352 40.568 122.728 40.264 121.768 40.264H119.608L116.584 54.328H118.792ZM115.912 57.4L113.752 67.48H103.384L109.864 37H120.952C122.776 37 124.44 37.096 125.944 37.288C127.448 37.48 128.744 37.864 129.832 38.44C130.92 39.016 131.768 39.848 132.376 40.936C132.984 41.992 133.288 43.416 133.288 45.208C133.288 46.872 133.016 48.456 132.472 49.96C131.96 51.432 131.112 52.728 129.928 53.848C128.776 54.936 127.272 55.8 125.416 56.44C123.56 57.08 121.304 57.4 118.648 57.4H115.912Z" stroke="url(#paint20_linear)" stroke-opacity="0.45" stroke-width="2" mask="url(#path-1-outside-1)"/>
<path d="M157.538 67.48H146.306L145.634 59.848H136.754L133.346 67.48H128.69L142.85 37H154.226L157.538 67.48ZM138.338 56.344H145.298L144.194 43.288L138.338 56.344Z" stroke="url(#paint21_linear)" stroke-opacity="0.45" stroke-width="2" mask="url(#path-1-outside-1)"/>
<path d="M185.405 67.48H174.173L168.845 45.448L164.141 67.48H159.821L166.301 37H177.773L182.813 59.32L187.565 37H191.981L185.405 67.48Z" stroke="url(#paint22_linear)" stroke-opacity="0.45" stroke-width="2" mask="url(#path-1-outside-1)"/>
<path d="M201.08 67.48H190.712L197.192 37H207.608L201.08 67.48Z" stroke="url(#paint23_linear)" stroke-opacity="0.45" stroke-width="2" mask="url(#path-1-outside-1)"/>
<path d="M226.096 36.52C228.848 36.52 231.072 36.872 232.768 37.576C234.496 38.28 235.856 39.368 236.848 40.84C237.488 41.832 237.984 42.952 238.336 44.2C238.688 45.448 238.864 46.888 238.864 48.52C238.864 49.928 238.736 51.336 238.48 52.744C238.224 54.152 237.856 55.512 237.376 56.824C236.928 58.104 236.368 59.32 235.696 60.472C235.056 61.592 234.336 62.584 233.536 63.448C232.032 65.08 230.288 66.232 228.304 66.904C226.352 67.544 223.936 67.864 221.056 67.864C218.272 67.864 216.032 67.576 214.336 67C212.64 66.424 211.296 65.496 210.304 64.216C209.6 63.32 209.04 62.184 208.624 60.808C208.24 59.432 208.048 57.704 208.048 55.624C208.048 52.072 208.672 48.904 209.92 46.12C211.2 43.304 213.008 41.08 215.344 39.448C216.752 38.456 218.32 37.72 220.048 37.24C221.776 36.76 223.792 36.52 226.096 36.52ZM220.672 64.504C221.408 64.504 222.096 64.184 222.736 63.544C223.408 62.872 224.016 61.992 224.56 60.904C225.136 59.784 225.648 58.52 226.096 57.112C226.576 55.704 226.976 54.248 227.296 52.744C227.616 51.24 227.856 49.752 228.016 48.28C228.208 46.776 228.304 45.416 228.304 44.2C228.304 42.536 228.128 41.4 227.776 40.792C227.456 40.152 226.976 39.832 226.336 39.832C225.6 39.832 224.896 40.152 224.224 40.792C223.552 41.432 222.912 42.296 222.304 43.384C221.728 44.44 221.2 45.672 220.72 47.08C220.272 48.456 219.872 49.88 219.52 51.352C219.2 52.824 218.944 54.28 218.752 55.72C218.592 57.16 218.512 58.488 218.512 59.704C218.512 61.528 218.704 62.792 219.088 63.496C219.504 64.168 220.032 64.504 220.672 64.504Z" stroke="url(#paint24_linear)" stroke-opacity="0.45" stroke-width="2" mask="url(#path-1-outside-1)"/>
<path d="M264.811 67.48H253.579L248.251 45.448L243.547 67.48H239.227L245.707 37H257.179L262.219 59.32L266.971 37H271.387L264.811 67.48Z" stroke="url(#paint25_linear)" stroke-opacity="0.45" stroke-width="2" mask="url(#path-1-outside-1)"/>
<defs>
<linearGradient id="paint0_linear" x1="134.743" y1="-3.52002" x2="134.743" y2="68.48" gradientUnits="userSpaceOnUse">
<stop stop-color="#F2994A"/>
<stop offset="1" stop-color="#333333"/>
</linearGradient>
<linearGradient id="paint1_linear" x1="134.743" y1="-3.52002" x2="134.743" y2="68.48" gradientUnits="userSpaceOnUse">
<stop stop-color="#F2994A"/>
<stop offset="1" stop-color="#333333"/>
</linearGradient>
<linearGradient id="paint2_linear" x1="134.743" y1="-3.52002" x2="134.743" y2="68.48" gradientUnits="userSpaceOnUse">
<stop stop-color="#F2994A"/>
<stop offset="1" stop-color="#333333"/>
</linearGradient>
<linearGradient id="paint3_linear" x1="134.743" y1="-3.52002" x2="134.743" y2="68.48" gradientUnits="userSpaceOnUse">
<stop stop-color="#F2994A"/>
<stop offset="1" stop-color="#333333"/>
</linearGradient>
<linearGradient id="paint4_linear" x1="134.743" y1="-3.52002" x2="134.743" y2="68.48" gradientUnits="userSpaceOnUse">
<stop stop-color="#F2994A"/>
<stop offset="1" stop-color="#333333"/>
</linearGradient>
<linearGradient id="paint5_linear" x1="134.743" y1="-3.52002" x2="134.743" y2="68.48" gradientUnits="userSpaceOnUse">
<stop stop-color="#F2994A"/>
<stop offset="1" stop-color="#333333"/>
</linearGradient>
<linearGradient id="paint6_linear" x1="134.743" y1="-3.52002" x2="134.743" y2="68.48" gradientUnits="userSpaceOnUse">
<stop stop-color="#F2994A"/>
<stop offset="1" stop-color="#333333"/>
</linearGradient>
<linearGradient id="paint7_linear" x1="134.743" y1="-3.52002" x2="134.743" y2="68.48" gradientUnits="userSpaceOnUse">
<stop stop-color="#F2994A"/>
<stop offset="1" stop-color="#333333"/>
</linearGradient>
<linearGradient id="paint8_linear" x1="134.743" y1="-3.52002" x2="134.743" y2="68.48" gradientUnits="userSpaceOnUse">
<stop stop-color="#F2994A"/>
<stop offset="1" stop-color="#333333"/>
</linearGradient>
<linearGradient id="paint9_linear" x1="134.743" y1="-3.52002" x2="134.743" y2="68.48" gradientUnits="userSpaceOnUse">
<stop stop-color="#F2994A"/>
<stop offset="1" stop-color="#333333"/>
</linearGradient>
<linearGradient id="paint10_linear" x1="134.743" y1="-3.52002" x2="134.743" y2="68.48" gradientUnits="userSpaceOnUse">
<stop stop-color="#F2994A"/>
<stop offset="1" stop-color="#333333"/>
</linearGradient>
<linearGradient id="paint11_linear" x1="134.743" y1="-3.52002" x2="134.743" y2="68.48" gradientUnits="userSpaceOnUse">
<stop stop-color="#F2994A"/>
<stop offset="1" stop-color="#333333"/>
</linearGradient>
<linearGradient id="paint12_linear" x1="134.743" y1="-3.52002" x2="134.743" y2="68.48" gradientUnits="userSpaceOnUse">
<stop stop-color="#F2994A"/>
<stop offset="1" stop-color="#333333"/>
</linearGradient>
<linearGradient id="paint13_linear" x1="134.22" y1="62.48" x2="134.22" y2="-3.52002" gradientUnits="userSpaceOnUse">
<stop stop-color="#F2994A"/>
<stop offset="1" stop-color="#333333"/>
</linearGradient>
<linearGradient id="paint14_linear" x1="134.22" y1="62.48" x2="134.22" y2="-3.52002" gradientUnits="userSpaceOnUse">
<stop stop-color="#F2994A"/>
<stop offset="1" stop-color="#333333"/>
</linearGradient>
<linearGradient id="paint15_linear" x1="134.22" y1="62.48" x2="134.22" y2="-3.52002" gradientUnits="userSpaceOnUse">
<stop stop-color="#F2994A"/>
<stop offset="1" stop-color="#333333"/>
</linearGradient>
<linearGradient id="paint16_linear" x1="134.22" y1="62.48" x2="134.22" y2="-3.52002" gradientUnits="userSpaceOnUse">
<stop stop-color="#F2994A"/>
<stop offset="1" stop-color="#333333"/>
</linearGradient>
<linearGradient id="paint17_linear" x1="134.22" y1="62.48" x2="134.22" y2="-3.52002" gradientUnits="userSpaceOnUse">
<stop stop-color="#F2994A"/>
<stop offset="1" stop-color="#333333"/>
</linearGradient>
<linearGradient id="paint18_linear" x1="134.22" y1="62.48" x2="134.22" y2="-3.52002" gradientUnits="userSpaceOnUse">
<stop stop-color="#F2994A"/>
<stop offset="1" stop-color="#333333"/>
</linearGradient>
<linearGradient id="paint19_linear" x1="134.22" y1="62.48" x2="134.22" y2="-3.52002" gradientUnits="userSpaceOnUse">
<stop stop-color="#F2994A"/>
<stop offset="1" stop-color="#333333"/>
</linearGradient>
<linearGradient id="paint20_linear" x1="134.22" y1="62.48" x2="134.22" y2="-3.52002" gradientUnits="userSpaceOnUse">
<stop stop-color="#F2994A"/>
<stop offset="1" stop-color="#333333"/>
</linearGradient>
<linearGradient id="paint21_linear" x1="134.22" y1="62.48" x2="134.22" y2="-3.52002" gradientUnits="userSpaceOnUse">
<stop stop-color="#F2994A"/>
<stop offset="1" stop-color="#333333"/>
</linearGradient>
<linearGradient id="paint22_linear" x1="134.22" y1="62.48" x2="134.22" y2="-3.52002" gradientUnits="userSpaceOnUse">
<stop stop-color="#F2994A"/>
<stop offset="1" stop-color="#333333"/>
</linearGradient>
<linearGradient id="paint23_linear" x1="134.22" y1="62.48" x2="134.22" y2="-3.52002" gradientUnits="userSpaceOnUse">
<stop stop-color="#F2994A"/>
<stop offset="1" stop-color="#333333"/>
</linearGradient>
<linearGradient id="paint24_linear" x1="134.22" y1="62.48" x2="134.22" y2="-3.52002" gradientUnits="userSpaceOnUse">
<stop stop-color="#F2994A"/>
<stop offset="1" stop-color="#333333"/>
</linearGradient>
<linearGradient id="paint25_linear" x1="134.22" y1="62.48" x2="134.22" y2="-3.52002" gradientUnits="userSpaceOnUse">
<stop stop-color="#F2994A"/>
<stop offset="1" stop-color="#333333"/>
</linearGradient>
</defs>
</svg>
